<mxfile host="app.diagrams.net" agent="Mozilla/5.0 (Windows NT 10.0; Win64; x64) AppleWebKit/537.36 (KHTML, like Gecko) Chrome/133.0.0.0 Safari/537.36" version="26.0.15">
  <diagram name="P치gina-1" id="IcCqu0KN_R2il_qNYgx9">
    <mxGraphModel dx="1816" dy="532" grid="1" gridSize="10" guides="1" tooltips="1" connect="1" arrows="1" fold="1" page="1" pageScale="1" pageWidth="827" pageHeight="1169" background="#ffffff" math="0" shadow="0">
      <root>
        <mxCell id="0" />
        <mxCell id="1" parent="0" />
        <mxCell id="Vv7vcqU2_82h6NBbjcMo-2" value="Gerenciar Usu치rio" style="shape=umlFrame;whiteSpace=wrap;html=1;pointerEvents=0;width=270;height=30;" vertex="1" parent="1">
          <mxGeometry x="20" y="210" width="300" height="270" as="geometry" />
        </mxCell>
        <mxCell id="Vv7vcqU2_82h6NBbjcMo-3" value="Usu치rio" style="shape=umlActor;verticalLabelPosition=bottom;verticalAlign=top;html=1;" vertex="1" parent="1">
          <mxGeometry x="-80" y="210" width="30" height="60" as="geometry" />
        </mxCell>
        <mxCell id="Vv7vcqU2_82h6NBbjcMo-4" value="Administrador" style="shape=umlActor;verticalLabelPosition=bottom;verticalAlign=top;html=1;" vertex="1" parent="1">
          <mxGeometry x="-80" y="420" width="30" height="60" as="geometry" />
        </mxCell>
        <mxCell id="Vv7vcqU2_82h6NBbjcMo-6" value="Manter Usu치rio" style="ellipse;whiteSpace=wrap;html=1;" vertex="1" parent="1">
          <mxGeometry x="90" y="300" width="140" height="70" as="geometry" />
        </mxCell>
        <mxCell id="Vv7vcqU2_82h6NBbjcMo-8" value="" style="endArrow=none;startArrow=none;endFill=0;startFill=0;endSize=8;html=1;verticalAlign=bottom;labelBackgroundColor=none;strokeWidth=1;rounded=0;exitX=0.5;exitY=0.5;exitDx=0;exitDy=0;exitPerimeter=0;" edge="1" parent="1" source="Vv7vcqU2_82h6NBbjcMo-3" target="Vv7vcqU2_82h6NBbjcMo-6">
          <mxGeometry width="160" relative="1" as="geometry">
            <mxPoint x="80" y="330" as="sourcePoint" />
            <mxPoint x="240" y="330" as="targetPoint" />
          </mxGeometry>
        </mxCell>
        <mxCell id="Vv7vcqU2_82h6NBbjcMo-9" value="" style="endArrow=none;startArrow=none;endFill=0;startFill=0;endSize=8;html=1;verticalAlign=bottom;labelBackgroundColor=none;strokeWidth=1;rounded=0;exitX=0.639;exitY=0.593;exitDx=0;exitDy=0;exitPerimeter=0;entryX=0.075;entryY=0.794;entryDx=0;entryDy=0;entryPerimeter=0;" edge="1" parent="1" source="Vv7vcqU2_82h6NBbjcMo-4" target="Vv7vcqU2_82h6NBbjcMo-6">
          <mxGeometry width="160" relative="1" as="geometry">
            <mxPoint x="-40" y="440" as="sourcePoint" />
            <mxPoint x="120" y="440" as="targetPoint" />
          </mxGeometry>
        </mxCell>
      </root>
    </mxGraphModel>
  </diagram>
</mxfile>
